<!--?xml version="1.0" standalone="no"?-->
              <svg id="sw-js-blob-svg" viewBox="0 0 100 100" xmlns="http://www.w3.org/2000/svg" version="1.1">
                    <defs> 
                        <linearGradient id="sw-gradient" x1="0" x2="1" y1="1" y2="0">
                            <stop id="stop1" stop-color="rgba(181.052, 235.784, 233.114, 1)" offset="0%"></stop>
                            <stop id="stop2" stop-color="rgba(55.904, 113.327, 210.739, 1)" offset="100%"></stop>
                        </linearGradient>
                    </defs>
                <path fill="url(#sw-gradient)" d="M12.4,-23.9C17.4,-18.6,23.7,-18,26.1,-14.8C28.5,-11.6,26.9,-5.8,26,-0.5C25.2,4.8,25,9.5,22.7,12.9C20.4,16.3,16.1,18.3,12,21.3C7.8,24.3,3.9,28.3,0.2,27.9C-3.5,27.6,-7,22.8,-10.4,19.4C-13.7,16,-17,13.9,-23,10.8C-29,7.8,-37.6,3.9,-41,-2C-44.4,-7.8,-42.5,-15.6,-38.9,-22.8C-35.4,-30,-30.1,-36.5,-23.3,-40.8C-16.5,-45.1,-8.3,-47.2,-2.3,-43.2C3.7,-39.3,7.4,-29.3,12.4,-23.9Z" width="100%" height="100%" transform="translate(50 50)" stroke-width="0" style="transition: all 0.3s ease 0s;" stroke="url(#sw-gradient)"></path>
              </svg>